<svg id="Layer_1" data-name="Layer 1" xmlns="http://www.w3.org/2000/svg" xmlns:xlink="http://www.w3.org/1999/xlink" viewBox="0 0 204 204"><defs><style>.cls-1{fill:url(#linear-gradient);}.cls-2{fill:#fff;}</style><linearGradient id="linear-gradient" x1="-12.47" y1="104.42" x2="228.09" y2="103.54" gradientTransform="matrix(1, 0, 0, -1, 0, 206)" gradientUnits="userSpaceOnUse"><stop offset="0" stop-color="#07c4f3"/><stop offset="0.71" stop-color="#2f175c"/><stop offset="1" stop-color="#151c78"/></linearGradient></defs><title>meter1-1</title><path class="cls-1" d="M187.64,69.9c5.45-2,11.59.71,13.06,6.35a102,102,0,1,1-25.91-45.7c4.08,4.15,3.29,10.83-1.26,14.46s-11.15,2.82-15.33-1.23a80.9,80.9,0,1,0,22.62,39.91C179.5,78,182.19,72,187.64,69.9Z"/><path class="cls-2" d="M66.08,99.16c0,4.64,3.24,8.35,8,8.35a2.84,2.84,0,0,0,1.29-.21L69.9,115h7.63l5.54-8.82A14.21,14.21,0,0,0,85.38,99c0-5.26-4.07-9.18-9.65-9.18A9.28,9.28,0,0,0,66.08,99.16Zm6.34-.25a3.33,3.33,0,1,1,3.34,3.27A3.24,3.24,0,0,1,72.42,98.91Zm22,6a3.4,3.4,0,0,1,2.91-1.55,3,3,0,0,1,3.17,3.06,3.1,3.1,0,0,1-3.17,3.17,2.86,2.86,0,0,1-3.06-2.38H87.92c.11,5,3.78,8.28,9.5,8.28a9.21,9.21,0,0,0,9.47-9.39A7.86,7.86,0,0,0,99,97.94a7.42,7.42,0,0,0-4.1,1.15l.46-3.17h9.83V90.3H90.37l-1.84,13.4Zm27-8.89a6.35,6.35,0,1,0-6.34,6.08A6.15,6.15,0,0,0,121.36,96Zm-4.25,0A2.09,2.09,0,1,1,115,93.9,2,2,0,0,1,117.11,96Zm17.75-5.76h-5.51L111,115h5.51Zm-10.37,19a6.34,6.34,0,1,0,6.33-6.08A6.13,6.13,0,0,0,124.49,109.24Zm4.25,0a2.09,2.09,0,1,1,2.08,2.12A2,2,0,0,1,128.74,109.24Z"/></svg>