<svg id="Layer_1" data-name="Layer 1" xmlns="http://www.w3.org/2000/svg" xmlns:xlink="http://www.w3.org/1999/xlink" viewBox="0 0 204 204"><defs><style>.cls-1{fill:#fff;}.cls-2{fill:url(#linear-gradient);}</style><linearGradient id="linear-gradient" x1="-12.47" y1="104.42" x2="228.09" y2="103.54" gradientTransform="matrix(1, 0, 0, -1, 0, 206)" gradientUnits="userSpaceOnUse"><stop offset="0" stop-color="#07c4f3"/><stop offset="0.71" stop-color="#2f175c"/><stop offset="1" stop-color="#151c78"/></linearGradient></defs><title>meter2-2</title><path class="cls-1" d="M75.66,89.8c-4.61,0-8.5,2.84-8.5,7.16A5.35,5.35,0,0,0,70,101.64a6.8,6.8,0,0,0-3.89,5.91c0,5,4.57,8,9.58,8s9.57-3,9.57-8a6.8,6.8,0,0,0-3.89-5.91A5.33,5.33,0,0,0,84.15,97C84.15,92.64,80.26,89.8,75.66,89.8Zm3.09,17.39a3.1,3.1,0,1,1-3.09-2.88A2.88,2.88,0,0,1,78.75,107.19ZM75.66,95.06a2.38,2.38,0,1,1-2.56,2.37A2.39,2.39,0,0,1,75.66,95.06Zm33.87,7.59c0-6.8-3.89-12.85-11-12.85s-11,6-11,12.85,3.89,12.85,11,12.85S109.53,109.46,109.53,102.65Zm-6.7,0c0,3.35-1.3,6.63-4.25,6.63S94.3,106,94.3,102.65,95.59,96,98.58,96,102.83,99.3,102.83,102.65ZM124.38,96a6.34,6.34,0,1,0-6.34,6.08A6.14,6.14,0,0,0,124.38,96Zm-4.25,0A2.09,2.09,0,1,1,118,93.9,2,2,0,0,1,120.13,96Zm17.75-5.76h-5.51L114,115h5.51Zm-10.37,19a6.34,6.34,0,1,0,6.34-6.08A6.14,6.14,0,0,0,127.51,109.24Zm4.25,0a2.09,2.09,0,1,1,2.09,2.12A2,2,0,0,1,131.76,109.24Z"/><path class="cls-2" d="M187.64,69.9c5.45-2,11.59.71,13.06,6.35a102,102,0,1,1-25.91-45.7c4.08,4.15,3.29,10.83-1.26,14.46s-11.15,2.82-15.33-1.23a80.9,80.9,0,1,0,22.62,39.91C179.5,78,182.19,72,187.64,69.9Z"/></svg>