<svg id="Layer_1" data-name="Layer 1" xmlns="http://www.w3.org/2000/svg" xmlns:xlink="http://www.w3.org/1999/xlink" viewBox="0 0 204 204"><defs><style>.cls-1{fill:#fff;}.cls-2{fill:url(#linear-gradient);}</style><linearGradient id="linear-gradient" x1="-12.47" y1="104.42" x2="228.09" y2="103.54" gradientTransform="matrix(1, 0, 0, -1, 0, 206)" gradientUnits="userSpaceOnUse"><stop offset="0" stop-color="#07c4f3"/><stop offset="0.71" stop-color="#2f175c"/><stop offset="1" stop-color="#151c78"/></linearGradient></defs><title>meter3-3</title><path class="cls-1" d="M66.08,99.16c0,4.64,3.24,8.35,8,8.35a2.84,2.84,0,0,0,1.29-.21L69.9,115h7.63l5.54-8.82A14.21,14.21,0,0,0,85.38,99c0-5.26-4.07-9.18-9.65-9.18A9.28,9.28,0,0,0,66.08,99.16Zm6.34-.25a3.33,3.33,0,1,1,3.34,3.27A3.24,3.24,0,0,1,72.42,98.91Zm37.25,3.74c0-6.8-3.89-12.85-11-12.85s-11,6-11,12.85,3.89,12.85,11,12.85S109.67,109.46,109.67,102.65Zm-6.7,0c0,3.35-1.3,6.63-4.25,6.63s-4.28-3.28-4.28-6.63S95.73,96,98.72,96,103,99.3,103,102.65ZM124.52,96a6.34,6.34,0,1,0-6.34,6.08A6.14,6.14,0,0,0,124.52,96Zm-4.25,0a2.09,2.09,0,1,1-2.09-2.13A2,2,0,0,1,120.27,96ZM138,90.27h-5.51L114.15,115h5.51Zm-10.37,19a6.34,6.34,0,1,0,6.34-6.08A6.14,6.14,0,0,0,127.65,109.24Zm4.25,0a2.09,2.09,0,1,1,2.09,2.12A2,2,0,0,1,131.9,109.24Z"/><path class="cls-2" d="M187.64,69.9c5.45-2,11.59.71,13.06,6.35a102,102,0,1,1-25.91-45.7c4.08,4.15,3.29,10.83-1.26,14.46s-11.15,2.82-15.33-1.23a80.9,80.9,0,1,0,22.62,39.91C179.5,78,182.19,72,187.64,69.9Z"/></svg>